# xmcd
#
# Track frame offsets: 
#        150
#        23429
#        43002
#        57911
#        71867
#        86609
#        111842
#        137868
#        163445
#
# Disc length: 2444 seconds
#
# Revision: 0
# Processed by: cddbd v1.5.2PL0 Copyright (c) Steve Scherf et al.
# Submitted via: ExactAudioCopyFreeDBPlugin 1.0
#
DISCID=7e098a09
DTITLE=Blue Magic - Thirteen Blue Magic Lane
DYEAR=1975
DGENRE=R&B
TTITLE0=The Loneliest House On The Block
TTITLE1=Chasing Rainbows
TTITLE2=Born On Halloween
TTITLE3=Haunted (By Your Love)
TTITLE4=I Like You
TTITLE5=Magic Of The Blue
TTITLE6=We're On The Right Track
TTITLE7=Stop And Get A Hold Of Yourself
TTITLE8=What's Come Over Me
EXTD=
EXTT0=
EXTT1=
EXTT2=
EXTT3=
EXTT4=
EXTT5=
EXTT6=
EXTT7=
EXTT8=
PLAYORDER=
